User Type,Username,Date,Text
,shullee,2012-03-24T11:43Z,Is this real???
,shullee,2012-03-24T12:07Z,Ok it's real thank u!!
,fordy81,2012-03-24T15:06Z,"What's the quality like guys, as it's typically half the size of a normal episode?"
,nosnibordivx,2012-03-24T17:44Z,"Complete name: E:UTorrent DownloadsSpartacus Vengeance - 2x09 - Monsters - {Nosnibordivx} [Divx] ( S02E09 ).divx
Format: AVI
Format/Info: Audio Video Interleave
File size: 256 MiB
Duration: 55mn 39s
Overall bit rate mode: Variable
Overall bit rate: 644 Kbps

Video
Format: MPEG-4 Visual
Format settings, BVOP: 1
Format settings, QPel: No
Format settings, GMC: No warppoints
Format settings, Matrix: Default (H.263)
Muxing mode: Packed bitstream
Codec ID: DX50
Codec ID/Hint: DivX 5
Duration: 55mn 39s
Bit rate: 503 Kbps
Width: 640 pixels
Height: 360 pixels
Display aspect ratio: 16:9
Frame rate: 23.976 fps
Color space: YUV
Chroma subsampling: 4:2:0
Bit depth: 8 bits
Scan type: Progressive
Compression mode: Lossy
Bits/(Pixel*Frame): 0.091
Stream size: 200 MiB (78%)
Title: Video 
Writing library: DivX 3330

Audio
Format: MPEG Audio
Format version: Version 1
Format profile: Layer 3
Mode: Joint stereo
Mode extension: MS Stereo
Codec ID: 55
Codec ID/Hint: MP3
Duration: 55mn 39s
Bit rate mode: Variable
Bit rate: 128 Kbps
Channel(s): 2 channels
Sampling rate: 48.0 KHz
Compression mode: Lossy
Stream size: 51.0 MiB (20%)
Alignment: Aligned on interleaves
Interleave, duration: 24 ms (0.58 video frame)
Interleave, preload duration: 490 ms
Title: Audio 
Writing library: LAME3.98.4"
,lawkozak,2012-03-25T04:33Z,"It's real

V:6-7"
,rhombeus,2012-03-26T04:27Z,great torrent thanks
